PathFileType	4	(X/Y/Z)	./resultDataOpenSim/trcMotMarkerGrf/sub09/qtm-14-05.trc
DataRate	CameraRate	NumFrames	NumMarkers	Units	OrigDataRate	OrigDataStartFrame	OrigNumFrames
250.000000	250.000000	11	24	m	250.000000	182	485
Frame#	Time	L.Toe.Tip			R.Toe.Tip			L.Ankle.Lat			R.Ankle.Lat			L.Ankle.Med			R.Ankle.Med			L.Heel			R.Heel			L.Knee.Lat			R.Knee.Lat			L.Knee.Med			R.Knee.Med			L.Thigh.Upper			R.Thigh.Upper			L.ASIS			R.ASIS			V.Sacral			L.Acromium			R.Acromium			C7			L.Elbow			R.Elbow			L.Wrist.Lat			R.Wrist.Lat
		X1	Y1	Z1	X2	Y2	Z2	X3	Y3	Z3	X4	Y4	Z4	X5	Y5	Z5	X6	Y6	Z6	X7	Y7	Z7	X8	Y8	Z8	X9	Y9	Z9	X10	Y10	Z10	X11	Y11	Z11	X12	Y12	Z12	X13	Y13	Z13	X14	Y14	Z14	X15	Y15	Z15	X16	Y16	Z16	X17	Y17	Z17	X18	Y18	Z18	X19	Y19	Z19	X20	Y20	Z20	X21	Y21	Z21	X22	Y22	Z22	X23	Y23	Z23	X24	Y24	Z24

182	0.724	0.13620758	-0.033930227	0.038056142	-0.58615782	0.057901459	0.11029349	-0.0093066854	-0.001717856	-0.016207587	-0.64698268	0.19751736	0.14587432	0.0029561172	0.020236523	0.079978484	-0.59135004	0.19746797	0.064006413	-0.083547989	-0.037408567	0.023224296	-0.68677834	0.23563767	0.081087783	0.037169882	0.41352667	-0.075280543	-0.25267969	0.41313047	0.23605668	0.020196101	0.41907055	0.049206569	-0.23452908	0.3809633	0.11144822	-0.12176699	0.7968553	-0.13267431	-0.20065289	0.80491748	0.23580347	-0.062666775	0.88180704	-0.05917804	-0.08520709	0.8831414	0.17914394	-0.24057361	0.94296727	0.03554513	-0.10108112	1.3362203	-0.12398031	-0.15557501	1.3515226	0.2064863	-0.19436625	1.3909702	0.034550844	-0.25949981	1.0089336	-0.17629707	-0.24429079	0.9874221	0.29125202	-0.17280633	0.76663096	-0.23014494	-0.010261669	0.83789938	0.2996795
183	0.728	0.13666673	-0.034252518	0.038148015	-0.58130531	0.060445265	0.11141982	-0.0085842275	-0.0019900253	-0.016339558	-0.63598987	0.20323671	0.146983	0.0037765447	0.020024573	0.079928569	-0.58045418	0.20141696	0.065105944	-0.083145405	-0.037194465	0.022926263	-0.67479001	0.24286993	0.082402609	0.043253992	0.41265526	-0.07628766	-0.2398016	0.41166447	0.23710268	0.027840233	0.41863352	0.048420122	-0.22086338	0.37911351	0.1127281	-0.11693227	0.79749341	-0.13386119	-0.19194049	0.80340786	0.2350673	-0.056216166	0.88215229	-0.060059687	-0.07831419	0.88245807	0.17812022	-0.23530469	0.94215308	0.036923842	-0.09305488	1.3355373	-0.12422189	-0.1488709	1.3510256	0.20608144	-0.18680067	1.3903871	0.033667338	-0.25105197	1.0080671	-0.17698814	-0.23915616	0.98728557	0.29016163	-0.16407787	0.76575777	-0.23021893	-0.0068080797	0.83570815	0.30017159
184	0.732	0.13680602	-0.034453616	0.038289812	-0.57582307	0.063098838	0.11273096	-0.0080888886	-0.0023702948	-0.016618535	-0.62467398	0.20873155	0.14802345	0.0040296411	0.019819363	0.079797686	-0.56922698	0.20543788	0.066143095	-0.08298137	-0.037131077	0.022359068	-0.66250364	0.2499371	0.083831044	0.048631387	0.41143974	-0.077217401	-0.22666295	0.41022795	0.23808653	0.035312574	0.41753685	0.047727577	-0.20720891	0.37747501	0.11375927	-0.11213412	0.79798651	-0.13481886	-0.18305002	0.80210231	0.23402291	-0.049723904	0.88270421	-0.060943029	-0.071585001	0.88186103	0.17719145	-0.22877766	0.94094519	0.038114786	-0.085028755	1.3349577	-0.12442747	-0.14190727	1.3506041	0.205687	-0.17928882	1.3898709	0.032984414	-0.24249195	1.0072755	-0.17769867	-0.23410485	0.98730977	0.28903598	-0.15523087	0.76495244	-0.23023643	-0.0034687487	0.83359281	0.30065458
185	0.736	0.13672999	-0.03458996	0.038381381	-0.56964485	0.065904519	0.11431773	-0.0077698756	-0.002813091	-0.016988871	-0.61307201	0.21400363	0.14897086	0.0038594896	0.019645015	0.079610314	-0.55766556	0.20950565	0.06712474	-0.083017541	-0.03712572	0.021705177	-0.64990762	0.25685415	0.085249673	0.053638013	0.40988254	-0.07793482	-0.21327299	0.40879309	0.2390067	0.042750662	0.41602596	0.047177594	-0.19359268	0.37604286	0.11458635	-0.10721623	0.79826548	-0.13542183	-0.17469725	0.80104937	0.23311205	-0.04318227	0.88341608	-0.061816108	-0.064988589	0.88133307	0.17637168	-0.221965	0.9398971	0.039458735	-0.07702926	1.3344722	-0.12462574	-0.13470084	1.3502589	0.205315	-0.17186397	1.3894518	0.032567817	-0.23383768	1.0065581	-0.17836889	-0.22901328	0.98748673	0.28789515	-0.14624666	0.76421095	-0.23020965	-0.00024621403	0.83153674	0.30112104
186	0.74	0.13659029	-0.034699869	0.038406056	-0.56257641	0.068976874	0.11623945	-0.0075110003	-0.0032517306	-0.017370115	-0.60120189	0.2191114	0.14982666	0.0035837229	0.019508659	0.079416467	-0.5457785	0.21358055	0.068048601	-0.083131821	-0.037118645	0.021136638	-0.63696128	0.26356379	0.086524314	0.058513568	0.40802664	-0.0784017	-0.19965183	0.40736581	0.23980405	0.050194574	0.41427335	0.046814103	-0.1800615	0.3748283	0.11520899	-0.10211728	0.79829396	-0.13566334	-0.16732712	0.80022362	0.23265067	-0.03659037	0.88421893	-0.062661368	-0.05849572	0.88088704	0.17566966	-0.21647088	0.93961957	0.041436823	-0.069064064	1.3340765	-0.12482267	-0.12727948	1.3499966	0.20497518	-0.16447074	1.3891236	0.032291911	-0.22511293	1.0059151	-0.17895426	-0.22373015	0.98780765	0.28676724	-0.13712451	0.76353212	-0.2301436	0.0028716342	0.82952937	0.30156161
187	0.744	0.13650503	-0.034790111	0.038394195	-0.55431697	0.072477257	0.11846883	-0.007212265	-0.003615313	-0.01766998	-0.58906009	0.22415062	0.15062132	0.003465998	0.019408672	0.079284851	-0.53361476	0.21766794	0.068901028	-0.083212953	-0.037063231	0.02077237	-0.62369474	0.26992894	0.087588164	0.063247399	0.40601786	-0.078715951	-0.18584123	0.40599627	0.24043268	0.057433495	0.41233172	0.046603241	-0.16665848	0.37386252	0.11558307	-0.096847204	0.79809552	-0.13567307	-0.16073267	0.79954183	0.2325877	-0.029968833	0.88501967	-0.063457154	-0.052102415	0.88054298	0.17508977	-0.21214488	0.93974647	0.043359249	-0.061107739	1.3337667	-0.12498873	-0.11968764	1.349821	0.20467884	-0.15706691	1.3888764	0.032024347	-0.21633909	1.005339	-0.17944357	-0.21828909	0.98826538	0.28568084	-0.12787255	0.76291707	-0.2300391	0.005894865	0.82757191	0.30197058
188	0.748	0.13652767	-0.034858062	0.038382192	-0.54471823	0.076467419	0.12089914	-0.0068327658	-0.0038685527	-0.017799225	-0.5766096	0.22919831	0.15139095	0.0035970205	0.019326901	0.07927825	-0.52122784	0.22182241	0.069663159	-0.083211761	-0.03692339	0.020659795	-0.61025917	0.27584183	0.088467942	0.067646998	0.40404077	-0.079000265	-0.1718737	0.40475453	0.24088016	0.064054121	0.41018567	0.046437511	-0.15339357	0.37318696	0.11568654	-0.091417265	0.79774521	-0.13563742	-0.15445019	0.79893718	0.23270018	-0.023362159	0.88572104	-0.064189614	-0.045821908	0.88031409	0.17463095	-0.20679951	0.93910023	0.043549997	-0.05312442	1.3335342	-0.12508511	-0.11197979	1.3497252	0.20442805	-0.14965945	1.3887263	0.031711339	-0.20753244	1.0048126	-0.17985767	-0.21293009	0.98885422	0.28466852	-0.11849779	0.76236703	-0.2298915	0.0088269788	0.82566324	0.30234906
189	0.752	0.13664416	-0.034908149	0.038392774	-0.53392365	0.080828266	0.12344224	-0.0063932191	-0.0040171483	-0.017728558	-0.56380261	0.23426571	0.15215569	0.0039311722	0.019231531	0.079417529	-0.50862469	0.22607899	0.070325368	-0.083139895	-0.036699266	0.020771873	-0.59681513	0.28129297	0.089229631	0.071551645	0.4021834	-0.079254063	-0.1577482	0.40368969	0.24113793	0.069745624	0.40788579	0.046260431	-0.14023705	0.37282571	0.11562135	-0.085789849	0.79733384	-0.13569155	-0.14817281	0.79837376	0.23282682	-0.016847102	0.88624765	-0.064864431	-0.039664133	0.88020661	0.17428651	-0.19879018	0.93716244	0.041333496	-0.045097865	1.3333686	-0.12509406	-0.10420777	1.3496962	0.204214	-0.1422727	1.3886999	0.031349561	-0.19871315	1.0043166	-0.18024569	-0.20789479	0.98957215	0.28376202	-0.10900723	0.76188307	-0.22968976	0.01166597	0.82379279	0.3027042
190	0.756	0.13679533	-0.034950334	0.038431853	-0.52217707	0.085368287	0.12610898	-0.0059493423	-0.0040962097	-0.017517128	-0.55063246	0.2392952	0.15291128	0.0043604913	0.019095576	0.079672755	-0.49577485	0.23038744	0.07089864	-0.083043231	-0.036434073	0.021024642	-0.58339057	0.28632424	0.089907916	0.07493816	0.4004266	-0.07934123	-0.14345881	0.40281266	0.24120785	0.074487946	0.40562965	0.046137159	-0.12710704	0.37276675	0.11559543	-0.079901868	0.79693209	-0.13586439	-0.14179236	0.79783086	0.23290356	-0.010501694	0.88657175	-0.065502993	-0.033620226	0.88022743	0.17404031	-0.18899197	0.93477898	0.038010548	-0.037042376	1.3332643	-0.12502949	-0.096416124	1.3497296	0.20403348	-0.13491887	1.3888028	0.030956481	-0.18989456	1.0038397	-0.1806423	-0.20319405	0.99042235	0.28298074	-0.099408505	0.76146684	-0.22942306	0.014411214	0.82195207	0.30304364
191	0.76	0.13691806	-0.034992381	0.038491408	-0.50959768	0.08997399	0.12897134	-0.0055556033	-0.0041600088	-0.017267163	-0.5371677	0.24419307	0.15362864	0.0047687645	0.018915662	0.079982319	-0.48265762	0.23461782	0.071414297	-0.082969066	-0.036187162	0.02130918	-0.56989398	0.29098285	0.090498788	0.077870235	0.39875338	-0.079116742	-0.12902899	0.40212085	0.24113488	0.078427601	0.40369953	0.046175474	-0.11389108	0.37296001	0.11570593	-0.073715735	0.79657145	-0.13610522	-0.13528591	0.79730932	0.23290897	-0.0043367369	0.88672808	-0.066122148	-0.027666535	0.88038725	0.17386412	-0.17963011	0.93315974	0.035350348	-0.02899325	1.3332238	-0.12492767	-0.088650005	1.3498378	0.20389111	-0.12759284	1.3890153	0.030556723	-0.18107335	1.0033828	-0.1810423	-0.19857783	0.99139942	0.28232457	-0.08970515	0.76112422	-0.22908444	0.017066315	0.82014723	0.30337177
192	0.764	0.13697774	-0.035035472	0.038555827	-0.49618408	0.094626454	0.13206629	-0.0052442084	-0.0042550851	-0.017062303	-0.52351444	0.24886982	0.15427647	0.00507126	0.018714286	0.08027816	-0.46928969	0.23862888	0.07190794	-0.082943258	-0.035998812	0.021529608	-0.55623146	0.29531577	0.091008205	0.080501582	0.39721536	-0.078582612	-0.11449772	0.40163477	0.24098169	0.081685439	0.40232101	0.046416964	-0.10052264	0.37334011	0.11579234	-0.067239938	0.79624518	-0.13635335	-0.1286445	0.79683653	0.23283264	0.0017121953	0.8867957	-0.066716359	-0.021783284	0.88069602	0.17372411	-0.17209315	0.93276815	0.033937661	-0.02097726	1.3332548	-0.12481606	-0.08096742	1.3500405	0.20377866	-0.12028349	1.3893144	0.030168809	-0.17224454	1.0029514	-0.18143734	-0.19376422	0.99247602	0.28177836	-0.079895102	0.76086808	-0.22866993	0.01963235	0.81839644	0.30368861
